<?xml version="1.0" encoding="UTF-8"?><svg id="a" xmlns="http://www.w3.org/2000/svg" viewBox="0 0 499.83 499.83"><defs><style>.b,.c{fill:#fff;}.d{fill:#a7a9ac;}.e{fill:#b41e3a;}.c{opacity:0;}.f{fill:#231f20;}</style></defs><rect class="c" width="499.83" height="499.83"/><path class="f" d="M381.66,83.39H118.18c-19.21,0-34.79,15.57-34.79,34.79V381.65c0,19.21,15.58,34.79,34.79,34.79H381.66c19.21,0,34.78-15.58,34.78-34.79V118.18c0-19.22-15.57-34.79-34.78-34.79Zm-177.54,13.64h90.41v91.58h-90.41V97.03Zm0,107.68h90.41v90.41h-90.41v-90.41ZM97.04,120.76c0-13.11,10.62-23.73,23.73-23.73h67.25v91.58H97.04V120.76Zm0,83.95h90.98v90.41H97.04v-90.41Zm23.73,198.08c-13.11,0-23.73-10.62-23.73-23.72v-67.85h90.98v91.57H120.77Zm83.35,0v-91.57h90.41v91.57h-90.41Zm198.68-23.72c0,13.1-10.62,23.72-23.73,23.72h-68.44v-91.57h92.17v67.85Zm0-83.95h-92.17v-90.41h92.17v90.41Zm0-106.51h-92.17V97.03h72.2c11.03,0,19.97,8.94,19.97,19.98v71.6Z"/><path class="b" d="M402.8,117.01v71.6h-92.17V97.03h72.2c11.03,0,19.97,8.94,19.97,19.98Z"/><rect class="b" x="204.12" y="97.03" width="90.41" height="91.58"/><path class="b" d="M188.02,97.03v91.58H97.04V120.76c0-13.11,10.62-23.73,23.73-23.73h67.25Z"/><rect class="b" x="97.04" y="204.71" width="90.98" height="90.41"/><rect class="d" x="310.63" y="204.71" width="92.17" height="90.41"/><path class="d" d="M188.02,311.22v91.57H120.77c-13.11,0-23.73-10.62-23.73-23.72v-67.85h90.98Z"/><rect class="d" x="204.12" y="311.22" width="90.41" height="91.57"/><path class="e" d="M402.8,311.22v67.85c0,13.1-10.62,23.72-23.73,23.72h-68.44v-91.57h92.17Z"/><rect class="e" x="204.12" y="204.71" width="90.41" height="90.41"/></svg>