<?xml version="1.0" encoding="UTF-8"?><svg xmlns="http://www.w3.org/2000/svg" xmlns:xlink="http://www.w3.org/1999/xlink" viewBox="0 0 392.97 330.6"><defs><style>.e{fill:url(#d);}</style><radialGradient id="d" cx="364.63" cy="335.19" fx="364.63" fy="335.19" r="536.35" gradientTransform="matrix(1, 0, 0, 1, 0, 0)" gradientUnits="userSpaceOnUse"><stop offset=".03" stop-color="#febd18"/><stop offset="1" stop-color="#ee326c"/></radialGradient></defs><g id="a"/><g id="b"><g id="c"><path class="e" d="M392.97,120c-2.19,7.31-6.02,13.7-11.39,18.57-.96,.88-20.21,17.85-36.44,8.48-9.28-5.36-14.29-17.45-12.71-30.51-6.1,8.34-13.6,21.49-11.02,35.59,4.32,23.59,32.6,26.71,39.83,53.39,4.38,16.15,.3,38.12-12.71,44.07-12.17,5.56-28.15-6.85-31.35-9.32-32.74-25.26-26.62-80.3-25.43-89.83,.3,22.25-17.46,39.87-37.29,39.83-16.97-.03-32.7-12.99-36.44-31.36-.88,4.11-1.67,10.03-.85,16.95,4.04,34.05,41.97,48.93,38.37,57.68-3.18,7.73-36.7,5.64-65.48-8.52-28.81-14.17-45.29-36.71-53.39-50-4.1,18.27-7.26,46.3,7.62,68.64,22.52,33.77,68.98,28.51,70.34,44.07,1.75,19.9-71.36,61.91-105.08,33.05-17.03-14.58-16.57-40.87-16.1-49.15-5.41,9.08-16.96,30.17-20.69,55.4l-54.29-28.84c-16.96-9.01-23.41-30.07-14.4-47.05L127.67,18.47c9.02-16.97,30.09-23.41,47.05-14.4l218.25,115.93Z"/></g></g></svg>